<svg version="1.1" id="Layer_1" xmlns="http://www.w3.org/2000/svg" xmlns:xlink="http://www.w3.org/1999/xlink" x="0px" y="0px"
	 width="100%" viewBox="0 0 500 500" enable-background="new 0 0 500 500" xml:space="preserve">
<path fill="#000000" opacity="1.000000" stroke="none" 
	d="
M463.000000,501.000000 
	C308.666718,501.000000 154.833405,501.000000 1.000082,501.000000 
	C1.000055,334.333405 1.000055,167.666824 1.000028,1.000172 
	C167.666550,1.000115 334.333099,1.000115 500.999756,1.000057 
	C500.999817,167.666519 500.999817,334.333038 500.999908,500.999756 
	C488.500000,501.000000 476.000000,501.000000 463.000000,501.000000 
M139.981232,279.016479 
	C139.981232,279.016479 139.890457,279.011475 139.975616,279.647430 
	C140.305023,280.126068 140.634430,280.604736 140.980545,281.011627 
	C140.980545,281.011627 140.907120,281.005463 141.001328,281.634399 
	C141.319489,282.120453 141.637650,282.606537 141.980499,283.020111 
	C141.980499,283.020111 141.905426,283.035156 141.974411,283.753448 
	C142.973083,285.537048 143.971756,287.320648 145.000290,289.857483 
	C148.271957,296.585175 151.543640,303.312836 155.219009,310.870636 
	C156.949448,308.266632 158.015717,306.662079 159.729111,304.734039 
	C161.939850,299.240204 166.943314,293.957336 160.965790,287.432861 
	C160.965790,287.432861 160.811691,287.045471 160.950470,286.375824 
	C160.307098,285.519379 159.663712,284.662903 159.001236,283.419067 
	C159.001236,283.419067 158.840454,283.066101 158.953003,282.312500 
	C157.573334,279.388611 156.193649,276.464722 154.675735,273.364136 
	C154.675735,273.364136 154.506943,273.216370 154.133636,272.633606 
	C151.092651,266.364868 148.051651,260.096161 144.990982,253.438492 
	C144.990982,253.438492 144.841064,253.079041 144.852539,252.408157 
	C144.236984,251.542709 143.621429,250.677246 142.986038,249.431381 
	C142.986038,249.431381 142.835358,249.081512 142.920395,248.524429 
	C142.624786,248.314987 142.329178,248.105530 142.029221,247.973175 
	C142.029221,247.973175 142.104248,247.954956 141.999664,247.219223 
	C140.354614,244.107834 138.709564,240.996445 137.044067,237.969116 
	C137.044067,237.969116 137.130478,237.973099 137.034973,237.253540 
	C136.367630,236.112473 135.700272,234.971405 135.011719,233.436066 
	C135.011719,233.436066 134.864807,233.069565 134.978470,232.283966 
	C134.186981,230.545792 133.395493,228.807617 132.607285,227.076675 
	C126.810059,227.076675 121.177422,227.076675 115.544785,227.076614 
	C115.213142,227.076614 114.779984,226.939423 114.566605,227.098083 
	C113.326370,228.020325 112.137787,229.012024 110.993446,229.998352 
	C110.993446,229.998352 110.978432,229.935852 110.293320,230.233368 
	C109.254074,233.173798 108.214828,236.114227 107.024345,239.445007 
	C107.024345,239.445007 106.989754,239.862213 106.312424,240.178070 
	C104.937889,243.765503 103.563354,247.352936 101.941574,251.563675 
	C101.612091,252.349670 101.282608,253.135666 100.294586,254.219299 
	C99.256050,256.824493 98.217514,259.429688 97.008232,262.419373 
	C97.008232,262.419373 96.973923,262.838654 96.310524,263.176422 
	C95.598190,265.432343 94.885849,267.688232 93.888062,270.624329 
	C92.251892,274.369263 90.615730,278.114197 88.281479,282.237488 
	C87.757492,284.003754 87.233513,285.769989 86.610413,287.870331 
	C93.092285,287.870331 98.847160,287.870331 104.878166,287.870331 
	C105.634781,285.587982 106.389305,283.311920 107.051819,281.033722 
	C107.051819,281.033722 107.068489,281.124237 107.727699,280.795349 
	C112.732887,269.520203 117.738083,258.245087 122.815025,246.808319 
	C124.635300,249.104919 125.807678,250.584076 126.997459,252.002914 
	C126.997459,252.002914 126.936050,252.016006 127.034576,252.692673 
	C127.670410,253.145447 128.306259,253.598221 128.819153,254.688354 
	C129.943863,257.484039 131.068573,260.279724 132.157013,263.560944 
	C132.344269,263.855682 132.610977,264.026245 132.995728,264.008118 
	C132.995728,264.008118 132.927368,264.039398 132.998199,264.768219 
	C133.651840,266.204468 134.305481,267.640717 134.983292,269.005829 
	C134.983292,269.005829 134.915039,269.037201 135.029770,269.762085 
	C136.349747,272.231598 137.669724,274.701080 139.008057,277.565491 
	C139.008057,277.565491 139.162689,277.929321 139.086716,278.482605 
	C139.380661,278.690552 139.674591,278.898529 139.981232,279.016479 
M156.068893,261.560638 
	C156.375381,261.763855 156.681885,261.967072 157.011734,262.581116 
	C157.011734,262.581116 157.164963,262.963043 157.037994,263.601288 
	C157.344360,264.096588 157.650711,264.591888 157.979843,265.014099 
	C157.979843,265.014099 157.906769,265.036865 158.010391,265.768402 
	C159.067093,267.866669 160.123795,269.964935 161.530945,272.759094 
	C163.526062,267.924927 165.177948,263.922424 166.977615,259.550262 
	C166.977615,259.550262 167.009857,259.153412 167.657089,258.811310 
	C168.840347,256.324677 169.858368,253.739365 171.264130,251.385620 
	C172.225021,249.776688 173.726624,248.490662 174.999664,247.001099 
	C174.999664,247.001099 174.940384,247.013779 175.032135,247.725555 
	C176.006577,249.513031 176.981018,251.300507 177.977707,253.014145 
	C177.977707,253.014145 177.904236,253.037537 178.003708,253.750565 
	C178.997986,255.557907 179.992279,257.365234 181.004196,259.567627 
	C181.004196,259.567627 181.160385,259.930939 181.031662,260.655945 
	C182.008759,262.463501 182.985855,264.271057 183.984283,266.009949 
	C183.984283,266.009949 183.912537,266.005524 183.993500,266.641815 
	C184.317245,267.121979 184.640991,267.602173 185.213028,268.707092 
	C185.782074,269.815369 186.351120,270.923676 186.995010,272.741791 
	C187.326233,273.553650 187.657440,274.365479 188.007095,275.567627 
	C188.007095,275.567627 188.163467,275.925690 188.093491,276.491577 
	C188.390274,276.714264 188.687057,276.936951 189.013245,277.590027 
	C189.013245,277.590027 189.181641,277.987183 189.067734,278.434204 
	C189.018005,278.764099 189.112793,279.045166 189.385818,279.461060 
	C189.385818,279.461060 189.468933,279.628204 189.815170,280.201782 
	C190.866699,282.158173 191.918243,284.114594 192.992691,286.006500 
	C192.992691,286.006500 192.927521,286.027374 193.037048,286.891907 
	C198.760223,287.420227 204.483398,287.948517 210.500687,288.503937 
	C210.178864,286.884247 209.995468,285.961182 209.959625,284.298187 
	C209.158524,282.579407 208.419418,280.828308 207.544037,279.148224 
	C205.418274,275.068329 203.229156,271.021454 200.993698,266.179016 
	C200.682953,264.752167 200.372208,263.325348 200.042038,261.976929 
	C200.042038,261.976929 200.122696,261.981812 200.031235,261.343689 
	C199.706650,260.862457 199.382065,260.381256 199.032837,259.979462 
	C199.032837,259.979462 199.110947,259.950897 199.028946,259.188385 
	C197.692291,256.400482 196.355637,253.612549 194.994064,250.432327 
	C194.994064,250.432327 194.852371,250.065659 194.983063,249.398972 
	C194.345505,248.557358 193.707932,247.715744 193.052429,246.966019 
	C193.052429,246.966019 193.146042,246.964951 193.028870,246.202103 
	C190.370972,240.435089 187.713074,234.668076 185.032181,228.979935 
	C185.032181,228.979935 185.109497,228.952118 184.992508,228.126343 
	C184.553268,227.764450 184.118423,227.093628 183.674149,227.087357 
	C177.761047,227.003616 171.834457,226.815170 165.943466,227.177444 
	C164.854202,227.244431 163.907486,229.629395 162.961594,230.985291 
	C162.961594,230.985291 162.962387,230.907181 162.399414,231.075150 
	C162.312164,231.422882 162.224930,231.770615 162.003662,232.458359 
	C162.003662,232.458359 161.987411,232.823502 161.334702,233.178268 
	C159.616791,237.438660 157.898880,241.699051 155.879547,246.642212 
	C154.970200,249.442871 154.060867,252.243530 153.061188,255.525635 
	C153.221542,255.849472 153.481842,256.025879 153.966171,256.653595 
	C154.271439,257.113586 154.576706,257.573578 154.987518,258.730957 
	C155.306244,259.515991 155.624969,260.300995 155.983566,261.021393 
	C155.983566,261.021393 155.907623,261.022064 156.068893,261.560638 
M254.288940,228.999603 
	C249.265228,228.030655 246.278656,229.566010 244.856339,234.979904 
	C243.494614,240.163223 240.945297,245.034546 238.659332,250.681839 
	C235.808044,243.695053 233.334366,237.457016 230.716934,231.279892 
	C228.871826,226.925446 224.983871,229.494263 222.063492,229.199844 
	C221.167343,229.109482 219.172516,231.358521 219.143753,232.571014 
	C218.904663,242.654419 219.008148,252.745956 219.008148,262.714355 
	C221.642105,262.714355 223.710129,262.714355 226.157196,262.714355 
	C226.157196,255.135574 226.157196,247.833984 226.157196,239.501068 
	C228.672089,245.152283 230.446228,249.945862 232.914932,254.350098 
	C234.171600,256.591980 236.793106,259.719055 238.588699,259.587799 
	C240.795471,259.426514 243.506210,256.657715 244.712372,254.344971 
	C247.018860,249.922424 248.415466,245.025345 250.189667,240.325211 
	C250.525757,240.386444 250.861847,240.447678 251.197937,240.508911 
	C251.197937,247.995850 251.197937,255.482773 251.197937,262.828705 
	C253.673004,262.828705 255.626251,262.828705 257.998566,262.828705 
	C257.998566,252.723404 258.100952,242.782913 257.874359,232.849930 
	C257.844666,231.547485 256.128967,230.283493 254.288940,228.999603 
M370.134552,255.358322 
	C370.213593,249.193741 371.155518,242.883530 370.146027,236.902679 
	C368.971619,229.944687 366.755920,229.001175 359.516815,228.998947 
	C355.186432,228.997635 350.842712,229.209015 346.529541,228.936646 
	C342.548920,228.685287 341.125000,230.901825 341.053864,234.171921 
	C340.883759,241.996246 340.899445,249.828629 341.044708,257.653961 
	C341.110809,261.214294 342.674011,263.362762 346.857300,263.074036 
	C351.498749,262.753754 356.183716,262.872406 360.841553,263.034576 
	C365.825836,263.208191 368.910187,261.105896 370.134552,255.358322 
M265.998779,249.365189 
	C265.999084,250.196060 265.993347,251.026993 266.000641,251.857803 
	C266.070465,259.832062 269.267578,262.959534 277.233490,263.025299 
	C279.842896,263.046844 282.450104,263.352142 285.058075,263.530792 
	C291.691925,263.985168 295.331909,262.222656 296.226837,256.042084 
	C297.177979,249.473633 296.983002,242.606888 296.285156,235.976013 
	C295.774933,231.127594 292.319397,228.470016 286.905121,228.935623 
	C283.111115,229.261871 279.257965,229.160934 275.446655,228.959015 
	C270.761719,228.710785 267.801666,230.914856 267.022095,235.265579 
	C266.251099,239.568588 266.305786,244.019531 265.998779,249.365189 
M333.973541,261.027313 
	C333.983185,252.361816 333.998230,243.696320 334.000732,235.030823 
	C334.002625,228.502487 333.920013,228.441345 326.833679,229.615601 
	C326.833679,233.625992 326.833679,237.714127 326.833679,241.712845 
	C321.685822,241.712845 316.946198,241.712845 311.826477,241.712845 
	C311.826477,237.340500 311.826477,233.251877 311.826477,229.285492 
	C309.359009,229.285492 307.286804,229.285492 305.276581,229.285492 
	C305.276581,240.656250 305.276581,251.738388 305.276581,262.712646 
	C307.631012,262.712646 309.701141,262.712646 312.172791,262.712646 
	C312.172791,258.017334 312.172791,253.600266 312.172791,249.296112 
	C317.328064,249.296112 322.067719,249.296112 327.166260,249.296112 
	C327.166260,254.021606 327.166260,258.456848 327.166260,263.556671 
	C329.643829,262.914734 331.639557,262.397644 333.973541,261.027313 
M315.997498,277.540466 
	C317.850037,274.998108 319.423553,274.991669 321.313202,277.700775 
	C322.521454,279.433014 324.373627,281.771179 325.197021,277.968384 
	C324.348602,276.736572 323.676422,275.223267 324.168030,274.445770 
	C326.247009,271.157654 324.018097,269.949860 321.679779,269.095673 
	C320.365173,268.615387 318.685760,268.770966 317.257965,269.064575 
	C315.810913,269.362091 313.373413,270.049286 313.282684,270.797791 
	C312.960632,273.453857 313.455383,276.208893 313.640686,278.926453 
	C314.404785,278.756409 315.168915,278.586365 315.997498,277.540466 
M397.000183,274.429993 
	C397.000183,272.648651 397.000183,270.867340 397.000183,269.085999 
	C396.356598,268.946442 395.713013,268.806885 395.069427,268.667328 
	C394.544922,270.632141 394.020386,272.596954 393.496704,274.558746 
	C391.024078,272.506531 388.537292,270.442535 385.253418,267.716980 
	C385.253418,272.449066 385.253418,275.679016 385.253418,278.972839 
	C390.259186,279.141663 386.603424,274.783569 387.967041,273.822876 
	C390.697205,275.910156 393.276672,277.882233 396.762939,280.547577 
	C396.895813,277.624817 396.947937,276.478882 397.000183,274.429993 
M254.233734,278.962738 
	C254.636154,277.094574 255.038589,275.226410 255.296997,274.026794 
	C257.825165,275.915222 260.369415,277.815613 263.804565,280.381470 
	C263.804565,275.437347 263.804565,272.325287 263.804565,269.213226 
	C263.297546,269.052551 262.790497,268.891907 262.283478,268.731232 
	C261.673279,270.641144 261.063049,272.551025 260.466614,274.417816 
	C258.059723,272.551758 255.464630,270.539795 252.869537,268.527863 
	C252.385269,268.886108 251.901016,269.244354 251.416748,269.602600 
	C252.061111,272.732605 252.705460,275.862579 254.233734,278.962738 
M284.056305,278.265930 
	C287.676147,278.532196 291.295990,278.798431 294.915833,279.064667 
	C294.938995,278.493073 294.962158,277.921448 294.985321,277.349854 
	C292.306030,277.095490 289.626709,276.841156 286.947418,276.586792 
	C286.958984,276.197296 286.970551,275.807831 286.982147,275.418335 
	C289.339172,275.116211 291.696228,274.814087 294.053284,274.511993 
	C294.042023,274.161987 294.030762,273.811951 294.019501,273.461945 
	C291.660278,273.170258 289.301025,272.878571 286.941803,272.586853 
	C286.938293,272.234558 286.934784,271.882294 286.931305,271.529999 
	C289.321320,271.163086 291.711365,270.796173 294.101379,270.429260 
	C294.035950,270.052429 293.970520,269.675598 293.905060,269.298767 
	C290.715149,269.298767 287.525238,269.298767 284.003876,269.298767 
	C284.003876,272.065063 284.003876,274.691284 284.056305,278.265930 
M301.078644,271.514252 
	C303.739502,271.161713 306.400391,270.809174 309.061249,270.456635 
	C309.009521,270.070496 308.957794,269.684326 308.906067,269.298157 
	C305.714233,269.298157 302.522369,269.298157 299.217896,269.298157 
	C299.217896,272.526855 299.217896,275.599060 299.217896,278.361847 
	C302.634735,278.361847 305.797424,278.361847 308.960114,278.361847 
	C308.963409,278.032318 308.966675,277.702789 308.969940,277.373291 
	C306.291992,277.105194 303.614044,276.837128 300.936096,276.569061 
	C300.954071,276.184540 300.972015,275.799988 300.989990,275.415466 
	C303.334381,275.107330 305.678772,274.799194 308.023163,274.491028 
	C308.005920,274.153809 307.988678,273.816559 307.971436,273.479340 
	C305.670380,273.125763 303.369354,272.772217 301.078644,271.514252 
M376.960358,270.568268 
	C375.167877,268.339447 373.676910,268.154663 372.412140,271.092346 
	C371.326691,273.613525 370.071411,276.061646 368.891235,278.542053 
	C373.158661,275.469635 376.931000,276.998932 381.586395,280.089508 
	C379.548523,276.174500 378.290527,273.757782 376.960358,270.568268 
M238.047699,273.587921 
	C237.360794,275.255920 236.673889,276.923889 236.233475,277.993347 
	C240.189041,277.993347 243.953049,277.993347 247.434387,277.993347 
	C246.838852,276.779602 246.078583,274.808472 244.956268,273.071228 
	C243.992493,271.579285 242.614960,270.354675 241.420395,269.011841 
	C240.458694,270.335815 239.496994,271.659790 238.047699,273.587921 
M338.000946,277.042908 
	C338.193115,277.711945 338.385315,278.380981 338.825439,279.913055 
	C339.881409,277.765778 340.521149,276.464905 341.121979,275.243164 
	C343.295227,276.762634 345.211487,278.102417 347.127716,279.442200 
	C347.361145,279.103363 347.594543,278.764526 347.827942,278.425720 
	C346.489624,277.001740 345.151306,275.577759 343.562714,273.887482 
	C345.245972,272.398773 346.714813,271.099670 348.183655,269.800598 
	C347.991974,269.465118 347.800293,269.129639 347.608612,268.794159 
	C345.287689,269.857513 342.966797,270.920898 340.614807,271.998505 
	C340.114441,270.927795 339.646545,269.926544 339.178619,268.925262 
	C338.786163,268.970551 338.393707,269.015839 338.001251,269.061096 
	C338.001251,271.432739 338.001251,273.804352 338.000946,277.042908 
M352.999207,276.278442 
	C353.219971,277.207367 353.440735,278.136292 353.661499,279.065247 
	C353.953705,279.038757 354.245880,279.012268 354.538055,278.985809 
	C354.823608,277.672546 355.109131,276.359253 355.372314,275.148682 
	C357.663513,275.148682 359.626678,275.148682 361.585632,275.148682 
	C361.966003,276.541168 362.306915,277.789154 362.647858,279.037109 
	C362.930664,278.988586 363.213470,278.940033 363.496277,278.891510 
	C363.496277,275.625244 363.496277,272.358948 363.496277,269.092682 
	C363.193665,269.056793 362.891022,269.020874 362.588409,268.984955 
	C362.257019,270.254456 361.925629,271.523926 361.571838,272.879120 
	C359.518280,272.879120 357.556366,272.879120 355.556671,272.879120 
	C355.096680,271.520477 354.652893,270.209747 354.209137,268.899017 
	C353.805695,268.968628 353.402283,269.038239 352.998840,269.107849 
	C352.998840,271.191284 352.998840,273.274719 352.999207,276.278442 
M276.956665,276.485962 
	C277.991425,274.172333 279.026184,271.858734 280.060944,269.545105 
	C279.625793,269.214294 279.190643,268.883484 278.755493,268.552673 
	C276.995544,270.961517 275.235596,273.370361 273.606232,275.600464 
	C272.081635,273.233704 270.631287,270.982147 269.180939,268.730621 
	C268.739838,269.036896 268.298767,269.343201 267.857666,269.649475 
	C269.139374,272.190125 270.368134,274.759277 271.716339,277.264130 
	C273.359131,280.316315 274.956604,279.884491 276.956665,276.485962 
M230.158981,269.001221 
	C227.113480,269.001221 224.067993,269.001221 221.022491,269.001221 
	C221.023148,269.518951 221.023804,270.036682 221.024460,270.554413 
	C222.335403,270.833435 223.646362,271.112457 224.999405,271.400421 
	C224.999405,272.864960 224.791794,274.069366 225.052704,275.161865 
	C225.368729,276.485199 226.080841,277.713928 226.621552,278.983612 
	C227.081421,277.631042 227.679474,276.306061 227.957108,274.917053 
	C228.176254,273.820831 228.001175,272.645782 228.001175,272.927948 
	C229.547318,270.962402 230.307388,269.996185 230.158981,269.001221 
z"/>
<path fill="#57AEFB" opacity="1.000000" stroke="none" 
	d="
M106.989754,239.862213 
	C106.989754,239.862213 107.024345,239.445007 107.455765,239.173615 
	C108.917603,235.913452 109.948021,232.924652 110.978439,229.935852 
	C110.978432,229.935852 110.993446,229.998352 111.355225,229.949921 
	C118.824722,226.060928 127.657478,227.269806 134.864807,233.069565 
	C134.864807,233.069565 135.011719,233.436066 135.013885,234.000885 
	C135.720871,235.701508 136.425674,236.837296 137.130478,237.973099 
	C137.130478,237.973099 137.044067,237.969116 137.031464,238.320496 
	C138.714005,241.766251 140.409119,244.860596 142.104248,247.954956 
	C142.104248,247.954956 142.029221,247.973175 142.091400,248.175552 
	C142.300095,248.690704 142.527359,248.925232 142.835358,249.081512 
	C142.835358,249.081512 142.986038,249.431381 142.981140,249.985352 
	C143.597839,251.385895 144.219452,252.232468 144.841064,253.079041 
	C144.841064,253.079041 144.990982,253.438492 144.990234,254.039856 
	C147.715500,260.794464 150.431396,266.952301 153.212677,273.080444 
	C153.303406,273.280365 154.060486,273.177856 154.506943,273.216370 
	C154.506943,273.216370 154.675735,273.364136 154.514450,273.823395 
	C155.848938,277.210480 157.344696,280.138275 158.840454,283.066101 
	C158.840454,283.066101 159.001236,283.419067 158.997803,283.971405 
	C159.600128,285.364319 160.205902,286.204895 160.811691,287.045471 
	C160.811691,287.045471 160.965790,287.432861 160.972046,288.065125 
	C162.521439,293.490631 161.778290,297.907806 159.038116,302.125519 
	C158.595947,302.806091 159.044937,304.065613 159.082001,305.057526 
	C158.015717,306.662079 156.949448,308.266632 155.219009,310.870636 
	C151.543640,303.312836 148.271957,296.585175 144.997421,289.085693 
	C143.964844,286.554321 142.935135,284.794739 141.905426,283.035156 
	C141.905426,283.035156 141.980499,283.020111 141.964539,282.739014 
	C141.601425,281.973755 141.254272,281.489624 140.907120,281.005463 
	C140.907120,281.005463 140.980545,281.011627 140.969238,280.729034 
	C140.602097,279.968109 140.246277,279.489807 139.890457,279.011475 
	C139.890457,279.011475 139.981232,279.016479 139.909164,278.823669 
	C139.692230,278.320160 139.467422,278.086304 139.162689,277.929321 
	C139.162689,277.929321 139.008057,277.565491 139.003662,276.971222 
	C137.637848,273.930359 136.276443,271.483795 134.915039,269.037201 
	C134.915039,269.037201 134.983292,269.005829 134.991531,268.677307 
	C134.308960,266.912292 133.618164,265.475861 132.927368,264.039398 
	C132.927368,264.039398 132.995728,264.008118 132.902313,263.836517 
	C132.673889,263.395111 132.468689,263.198608 132.193283,263.075409 
	C131.068573,260.279724 129.943863,257.484039 128.847946,254.043274 
	C128.229843,252.937454 127.582954,252.476730 126.936050,252.015991 
	C126.936050,252.016006 126.997459,252.002914 126.994125,251.655334 
	C126.052544,248.969742 125.114288,246.631729 123.800491,243.357925 
	C122.126984,245.264084 121.025879,246.073959 120.529503,247.160172 
	C118.324677,251.985031 116.165024,256.838928 114.230865,261.777008 
	C111.723297,268.179047 109.445305,274.670990 107.068481,281.124237 
	C107.068489,281.124237 107.051819,281.033722 106.757004,281.164062 
	C104.500618,285.955078 100.652863,286.514801 96.280334,286.034454 
	C95.127266,285.907776 93.934326,285.888275 92.785316,286.028870 
	C89.491882,286.431946 88.715561,284.646027 88.979568,281.859131 
	C90.615730,278.114197 92.251892,274.369263 94.378448,270.211792 
	C95.570534,267.479034 96.272232,265.158844 96.973923,262.838654 
	C96.973923,262.838654 97.008232,262.419373 97.444000,262.161499 
	C98.904213,259.242981 99.928665,256.582306 100.953125,253.921661 
	C101.282608,253.135666 101.612091,252.349670 102.404762,251.183777 
	C104.241890,247.156662 105.615822,243.509445 106.989754,239.862213 
z"/>
<path fill="#57AEFA" opacity="1.000000" stroke="none" 
	d="
M189.181641,277.987183 
	C189.181641,277.987183 189.013245,277.590027 188.930832,277.127991 
	C188.620102,276.419189 188.391785,276.172455 188.163467,275.925690 
	C188.163467,275.925690 188.007095,275.567627 188.007202,275.012268 
	C187.644928,273.648560 187.282547,272.840271 186.920166,272.031952 
	C186.351120,270.923676 185.782074,269.815369 185.083115,268.078247 
	C184.606308,266.968109 184.259415,266.486816 183.912537,266.005524 
	C183.912537,266.005524 183.984283,266.009949 183.990509,265.658081 
	C183.051270,263.514465 182.105820,261.722717 181.160385,259.930939 
	C181.160385,259.930939 181.004196,259.567627 181.006897,258.968445 
	C179.974487,256.592041 178.939362,254.814789 177.904236,253.037537 
	C177.904236,253.037537 177.977707,253.014145 177.982697,252.664368 
	C176.971909,250.547653 175.956146,248.780716 174.940384,247.013779 
	C174.940384,247.013779 174.999664,247.001099 174.948334,246.683929 
	C174.022690,246.155670 172.435379,245.641281 172.377426,245.777512 
	C170.497101,250.197388 165.443634,253.377411 167.009857,259.153412 
	C167.009857,259.153412 166.977615,259.550262 166.570160,259.819489 
	C164.697845,262.505615 163.233002,264.922516 161.726913,267.407471 
	C160.456818,266.619293 159.181793,265.828064 157.906769,265.036865 
	C157.906769,265.036865 157.979843,265.014099 157.981415,264.750732 
	C157.710312,263.979248 157.437637,263.471161 157.164963,262.963043 
	C157.164963,262.963043 157.011734,262.581116 156.905518,262.112457 
	C156.502075,261.436554 156.204849,261.229309 155.907623,261.022064 
	C155.907623,261.022064 155.983566,261.021393 155.995056,260.701660 
	C155.631714,259.599152 155.256851,258.816376 154.881989,258.033569 
	C154.576706,257.573578 154.271439,257.113586 154.086212,256.240814 
	C153.854660,255.566757 153.503098,255.305481 153.151520,255.044189 
	C154.060867,252.243530 154.970200,249.442871 156.367950,246.238556 
	C158.566711,241.497787 160.277069,237.160645 161.987411,232.823502 
	C161.987411,232.823502 162.003662,232.458359 162.281036,232.141174 
	C162.693069,231.518387 162.827728,231.212784 162.962387,230.907181 
	C162.962387,230.907181 162.961594,230.985291 163.261963,230.955032 
	C165.516998,229.964920 167.452072,228.243652 169.430084,228.192825 
	C174.646606,228.058777 179.881760,228.649796 185.109497,228.952118 
	C185.109497,228.952118 185.032181,228.979935 185.016876,229.341217 
	C187.716415,235.456650 190.431229,241.210800 193.146042,246.964951 
	C193.146042,246.964951 193.052429,246.966019 193.037033,247.274841 
	C193.631882,248.410995 194.242126,249.238327 194.852371,250.065659 
	C194.852371,250.065659 194.994064,250.432327 194.991638,251.038239 
	C196.363113,254.413055 197.737030,257.181976 199.110947,259.950897 
	C199.110947,259.950897 199.032837,259.979462 199.031006,260.262726 
	C199.393677,261.024597 199.758194,261.503204 200.122696,261.981812 
	C200.122696,261.981812 200.042038,261.976929 200.019852,262.333435 
	C200.353622,264.113708 200.709595,265.537476 201.065552,266.961273 
	C203.229156,271.021454 205.418274,275.068329 207.544037,279.148224 
	C208.419418,280.828308 209.158524,282.579407 209.484665,284.726196 
	C203.648972,285.445251 198.288254,285.736328 192.927521,286.027374 
	C192.927521,286.027374 192.992691,286.006500 192.998352,285.645813 
	C191.825638,283.399506 190.647293,281.513855 189.468933,279.628204 
	C189.468933,279.628204 189.385818,279.461060 189.515106,279.155701 
	C189.490128,278.562622 189.335876,278.274902 189.181641,277.987183 
z"/>
<path fill="#FEFEFE" opacity="1.000000" stroke="none" 
	d="
M254.741547,229.000641 
	C256.128967,230.283493 257.844666,231.547485 257.874359,232.849930 
	C258.100952,242.782913 257.998566,252.723404 257.998566,262.828705 
	C255.626251,262.828705 253.673004,262.828705 251.197937,262.828705 
	C251.197937,255.482773 251.197937,247.995850 251.197937,240.508911 
	C250.861847,240.447678 250.525757,240.386444 250.189667,240.325211 
	C248.415466,245.025345 247.018860,249.922424 244.712372,254.344971 
	C243.506210,256.657715 240.795471,259.426514 238.588699,259.587799 
	C236.793106,259.719055 234.171600,256.591980 232.914932,254.350098 
	C230.446228,249.945862 228.672089,245.152283 226.157196,239.501068 
	C226.157196,247.833984 226.157196,255.135574 226.157196,262.714355 
	C223.710129,262.714355 221.642105,262.714355 219.008148,262.714355 
	C219.008148,252.745956 218.904663,242.654419 219.143753,232.571014 
	C219.172516,231.358521 221.167343,229.109482 222.063492,229.199844 
	C224.983871,229.494263 228.871826,226.925446 230.716934,231.279892 
	C233.334366,237.457016 235.808044,243.695053 238.659332,250.681839 
	C240.945297,245.034546 243.494614,240.163223 244.856339,234.979904 
	C246.278656,229.566010 249.265228,228.030655 254.741547,229.000641 
z"/>
<path fill="#FEFEFE" opacity="1.000000" stroke="none" 
	d="
M370.072327,255.780334 
	C368.910187,261.105896 365.825836,263.208191 360.841553,263.034576 
	C356.183716,262.872406 351.498749,262.753754 346.857300,263.074036 
	C342.674011,263.362762 341.110809,261.214294 341.044708,257.653961 
	C340.899445,249.828629 340.883759,241.996246 341.053864,234.171921 
	C341.125000,230.901825 342.548920,228.685287 346.529541,228.936646 
	C350.842712,229.209015 355.186432,228.997635 359.516815,228.998947 
	C366.755920,229.001175 368.971619,229.944687 370.146027,236.902679 
	C371.155518,242.883530 370.213593,249.193741 370.072327,255.780334 
M354.733887,235.001511 
	C352.363831,235.706985 348.351349,233.442017 348.085815,237.978210 
	C347.740082,243.884262 348.001251,249.825821 348.001251,255.997650 
	C349.495422,255.997650 350.470612,255.991882 351.445709,255.998535 
	C364.000000,256.084198 364.003418,256.084625 363.996613,243.433395 
	C363.992828,236.399170 364.587219,236.344009 354.733887,235.001511 
z"/>
<path fill="#FEFEFE" opacity="1.000000" stroke="none" 
	d="
M265.998535,248.885376 
	C266.305786,244.019531 266.251099,239.568588 267.022095,235.265579 
	C267.801666,230.914856 270.761719,228.710785 275.446655,228.959015 
	C279.257965,229.160934 283.111115,229.261871 286.905121,228.935623 
	C292.319397,228.470016 295.774933,231.127594 296.285156,235.976013 
	C296.983002,242.606888 297.177979,249.473633 296.226837,256.042084 
	C295.331909,262.222656 291.691925,263.985168 285.058075,263.530792 
	C282.450104,263.352142 279.842896,263.046844 277.233490,263.025299 
	C269.267578,262.959534 266.070465,259.832062 266.000641,251.857803 
	C265.993347,251.026993 265.999084,250.196060 265.998535,248.885376 
M289.998383,245.525925 
	C290.000916,243.703140 289.786804,241.848053 290.052643,240.064514 
	C290.553162,236.706406 288.222290,235.524536 285.880920,235.136566 
	C283.160431,234.685745 280.247223,234.863998 277.494812,235.279892 
	C274.325195,235.758850 272.303955,237.384293 272.923065,241.239471 
	C273.338135,243.824158 273.002655,246.529480 273.001892,249.180817 
	C272.999908,255.928360 274.522766,257.356262 281.341766,256.999512 
	C289.889862,256.552307 289.999725,256.437866 289.998535,247.977219 
	C289.998474,247.480087 289.998444,246.982971 289.998383,245.525925 
z"/>
<path fill="#FEFEFE" opacity="1.000000" stroke="none" 
	d="
M333.804413,261.453918 
	C331.639557,262.397644 329.643829,262.914734 327.166260,263.556671 
	C327.166260,258.456848 327.166260,254.021606 327.166260,249.296112 
	C322.067719,249.296112 317.328064,249.296112 312.172791,249.296112 
	C312.172791,253.600266 312.172791,258.017334 312.172791,262.712646 
	C309.701141,262.712646 307.631012,262.712646 305.276581,262.712646 
	C305.276581,251.738388 305.276581,240.656250 305.276581,229.285492 
	C307.286804,229.285492 309.359009,229.285492 311.826477,229.285492 
	C311.826477,233.251877 311.826477,237.340500 311.826477,241.712845 
	C316.946198,241.712845 321.685822,241.712845 326.833679,241.712845 
	C326.833679,237.714127 326.833679,233.625992 326.833679,229.615601 
	C333.920013,228.441345 334.002625,228.502487 334.000732,235.030823 
	C333.998230,243.696320 333.983185,252.361816 333.804413,261.453918 
z"/>
<path fill="#FEFEFE" opacity="1.000000" stroke="none" 
	d="
M315.965271,277.978394 
	C315.168915,278.586365 314.404785,278.756409 313.640686,278.926453 
	C313.455383,276.208893 312.960632,273.453857 313.282684,270.797791 
	C313.373413,270.049286 315.810913,269.362091 317.257965,269.064575 
	C318.685760,268.770966 320.365173,268.615387 321.679779,269.095673 
	C324.018097,269.949860 326.247009,271.157654 324.168030,274.445770 
	C323.676422,275.223267 324.348602,276.736572 325.197021,277.968384 
	C324.373627,281.771179 322.521454,279.433014 321.313202,277.700775 
	C319.423553,274.991669 317.850037,274.998108 315.965271,277.978394 
z"/>
<path fill="#7EBAEC" opacity="1.000000" stroke="none" 
	d="
M107.398087,280.959778 
	C109.445305,274.670990 111.723297,268.179047 114.230865,261.777008 
	C116.165024,256.838928 118.324677,251.985031 120.529503,247.160172 
	C121.025879,246.073959 122.126984,245.264084 123.800491,243.357925 
	C125.114288,246.631729 126.052544,248.969742 126.985428,251.685501 
	C125.807678,250.584076 124.635300,249.104919 122.815025,246.808319 
	C117.738083,258.245087 112.732887,269.520203 107.398087,280.959778 
z"/>
<path fill="#FEFEFE" opacity="1.000000" stroke="none" 
	d="
M397.000122,274.881470 
	C396.947937,276.478882 396.895813,277.624817 396.762939,280.547577 
	C393.276672,277.882233 390.697205,275.910156 387.967041,273.822876 
	C386.603424,274.783569 390.259186,279.141663 385.253418,278.972839 
	C385.253418,275.679016 385.253418,272.449066 385.253418,267.716980 
	C388.537292,270.442535 391.024078,272.506531 393.496704,274.558746 
	C394.020386,272.596954 394.544922,270.632141 395.069427,268.667328 
	C395.713013,268.806885 396.356598,268.946442 397.000183,269.085999 
	C397.000183,270.867340 397.000183,272.648651 397.000122,274.881470 
z"/>
<path fill="#FEFEFE" opacity="1.000000" stroke="none" 
	d="
M253.791779,278.977661 
	C252.705460,275.862579 252.061111,272.732605 251.416748,269.602600 
	C251.901016,269.244354 252.385269,268.886108 252.869537,268.527863 
	C255.464630,270.539795 258.059723,272.551758 260.466614,274.417816 
	C261.063049,272.551025 261.673279,270.641144 262.283478,268.731232 
	C262.790497,268.891907 263.297546,269.052551 263.804565,269.213226 
	C263.804565,272.325287 263.804565,275.437347 263.804565,280.381470 
	C260.369415,277.815613 257.825165,275.915222 255.296997,274.026794 
	C255.038589,275.226410 254.636154,277.094574 253.791779,278.977661 
z"/>
<path fill="#FEFEFE" opacity="1.000000" stroke="none" 
	d="
M284.030090,277.791718 
	C284.003876,274.691284 284.003876,272.065063 284.003876,269.298767 
	C287.525238,269.298767 290.715149,269.298767 293.905060,269.298767 
	C293.970520,269.675598 294.035950,270.052429 294.101379,270.429260 
	C291.711365,270.796173 289.321320,271.163086 286.931305,271.529999 
	C286.934784,271.882294 286.938293,272.234558 286.941803,272.586853 
	C289.301025,272.878571 291.660278,273.170258 294.019501,273.461945 
	C294.030762,273.811951 294.042023,274.161987 294.053284,274.511993 
	C291.696228,274.814087 289.339172,275.116211 286.982147,275.418335 
	C286.970551,275.807831 286.958984,276.197296 286.947418,276.586792 
	C289.626709,276.841156 292.306030,277.095490 294.985321,277.349854 
	C294.962158,277.921448 294.938995,278.493073 294.915833,279.064667 
	C291.295990,278.798431 287.676147,278.532196 284.030090,277.791718 
z"/>
<path fill="#FEFEFE" opacity="1.000000" stroke="none" 
	d="
M301.073486,271.966431 
	C303.369354,272.772217 305.670380,273.125763 307.971436,273.479340 
	C307.988678,273.816559 308.005920,274.153809 308.023163,274.491028 
	C305.678772,274.799194 303.334381,275.107330 300.989990,275.415466 
	C300.972015,275.799988 300.954071,276.184540 300.936096,276.569061 
	C303.614044,276.837128 306.291992,277.105194 308.969940,277.373291 
	C308.966675,277.702789 308.963409,278.032318 308.960114,278.361847 
	C305.797424,278.361847 302.634735,278.361847 299.217896,278.361847 
	C299.217896,275.599060 299.217896,272.526855 299.217896,269.298157 
	C302.522369,269.298157 305.714233,269.298157 308.906067,269.298157 
	C308.957794,269.684326 309.009521,270.070496 309.061249,270.456635 
	C306.400391,270.809174 303.739502,271.161713 301.073486,271.966431 
z"/>
<path fill="#FEFEFE" opacity="1.000000" stroke="none" 
	d="
M376.996460,270.954651 
	C378.290527,273.757782 379.548523,276.174500 381.586395,280.089508 
	C376.931000,276.998932 373.158661,275.469635 368.891235,278.542053 
	C370.071411,276.061646 371.326691,273.613525 372.412140,271.092346 
	C373.676910,268.154663 375.167877,268.339447 376.996460,270.954651 
z"/>
<path fill="#FEFEFE" opacity="1.000000" stroke="none" 
	d="
M238.291504,273.285828 
	C239.496994,271.659790 240.458694,270.335815 241.420380,269.011841 
	C242.614960,270.354675 243.992493,271.579285 244.956268,273.071228 
	C246.078583,274.808472 246.838852,276.779602 247.434387,277.993347 
	C243.953049,277.993347 240.189041,277.993347 236.233475,277.993347 
	C236.673889,276.923889 237.360794,275.255920 238.291504,273.285828 
z"/>
<path fill="#FEFEFE" opacity="1.000000" stroke="none" 
	d="
M338.001099,276.609436 
	C338.001251,273.804352 338.001251,271.432739 338.001251,269.061096 
	C338.393707,269.015839 338.786163,268.970551 339.178619,268.925262 
	C339.646545,269.926544 340.114441,270.927795 340.614807,271.998505 
	C342.966797,270.920898 345.287689,269.857513 347.608612,268.794159 
	C347.800293,269.129639 347.991974,269.465118 348.183655,269.800598 
	C346.714813,271.099670 345.245972,272.398773 343.562714,273.887482 
	C345.151306,275.577759 346.489624,277.001740 347.827942,278.425720 
	C347.594543,278.764526 347.361145,279.103363 347.127716,279.442200 
	C345.211487,278.102417 343.295227,276.762634 341.121979,275.243164 
	C340.521149,276.464905 339.881409,277.765778 338.825439,279.913055 
	C338.385315,278.380981 338.193115,277.711945 338.001099,276.609436 
z"/>
<path fill="#FEFEFE" opacity="1.000000" stroke="none" 
	d="
M352.999023,275.818298 
	C352.998840,273.274719 352.998840,271.191284 352.998840,269.107849 
	C353.402283,269.038239 353.805695,268.968628 354.209137,268.899017 
	C354.652893,270.209747 355.096680,271.520477 355.556671,272.879120 
	C357.556366,272.879120 359.518280,272.879120 361.571838,272.879120 
	C361.925629,271.523926 362.257019,270.254456 362.588409,268.984955 
	C362.891022,269.020874 363.193665,269.056793 363.496277,269.092682 
	C363.496277,272.358948 363.496277,275.625244 363.496277,278.891510 
	C363.213470,278.940033 362.930664,278.988586 362.647858,279.037109 
	C362.306915,277.789154 361.966003,276.541168 361.585632,275.148682 
	C359.626678,275.148682 357.663513,275.148682 355.372314,275.148682 
	C355.109131,276.359253 354.823608,277.672546 354.538055,278.985809 
	C354.245880,279.012268 353.953705,279.038757 353.661499,279.065247 
	C353.440735,278.136292 353.219971,277.207367 352.999023,275.818298 
z"/>
<path fill="#FEFEFE" opacity="1.000000" stroke="none" 
	d="
M276.682556,276.778687 
	C274.956604,279.884491 273.359131,280.316315 271.716339,277.264130 
	C270.368134,274.759277 269.139374,272.190125 267.857666,269.649475 
	C268.298767,269.343201 268.739838,269.036896 269.180939,268.730621 
	C270.631287,270.982147 272.081635,273.233704 273.606232,275.600464 
	C275.235596,273.370361 276.995544,270.961517 278.755493,268.552673 
	C279.190643,268.883484 279.625793,269.214294 280.060944,269.545105 
	C279.026184,271.858734 277.991425,274.172333 276.682556,276.778687 
z"/>
<path fill="#7EBAEC" opacity="1.000000" stroke="none" 
	d="
M88.630524,282.048309 
	C88.715561,284.646027 89.491882,286.431946 92.785316,286.028870 
	C93.934326,285.888275 95.127266,285.907776 96.280334,286.034454 
	C100.652863,286.514801 104.500618,285.955078 106.803009,281.165131 
	C106.389305,283.311920 105.634781,285.587982 104.878166,287.870331 
	C98.847160,287.870331 93.092285,287.870331 86.610413,287.870331 
	C87.233513,285.769989 87.757492,284.003754 88.630524,282.048309 
z"/>
<path fill="#FEFEFE" opacity="1.000000" stroke="none" 
	d="
M230.613220,269.015564 
	C230.307388,269.996185 229.547318,270.962402 228.001175,272.927948 
	C228.001175,272.645782 228.176254,273.820831 227.957108,274.917053 
	C227.679474,276.306061 227.081421,277.631042 226.621552,278.983612 
	C226.080841,277.713928 225.368729,276.485199 225.052704,275.161865 
	C224.791794,274.069366 224.999405,272.864960 224.999405,271.400421 
	C223.646362,271.112457 222.335403,270.833435 221.024460,270.554413 
	C221.023804,270.036682 221.023148,269.518951 221.022491,269.001221 
	C224.067993,269.001221 227.113480,269.001221 230.613220,269.015564 
z"/>
<path fill="#7EBAEC" opacity="1.000000" stroke="none" 
	d="
M134.921631,232.676758 
	C127.657478,227.269806 118.824722,226.060928 111.324387,229.940857 
	C112.137787,229.012024 113.326370,228.020325 114.566605,227.098083 
	C114.779984,226.939423 115.213142,227.076614 115.544785,227.076614 
	C121.177422,227.076675 126.810059,227.076675 132.607285,227.076675 
	C133.395493,228.807617 134.186981,230.545792 134.921631,232.676758 
z"/>
<path fill="#7EBAEC" opacity="1.000000" stroke="none" 
	d="
M192.982285,286.459656 
	C198.288254,285.736328 203.648972,285.445251 209.410889,285.096191 
	C209.995468,285.961182 210.178864,286.884247 210.500687,288.503937 
	C204.483398,287.948517 198.760223,287.420227 192.982285,286.459656 
z"/>
<path fill="#7EBAEC" opacity="1.000000" stroke="none" 
	d="
M154.320282,272.924988 
	C154.060486,273.177856 153.303406,273.280365 153.212677,273.080444 
	C150.431396,266.952301 147.715500,260.794464 145.000061,254.234314 
	C148.051651,260.096161 151.092651,266.364868 154.320282,272.924988 
z"/>
<path fill="#7EBAEC" opacity="1.000000" stroke="none" 
	d="
M185.050995,228.539215 
	C179.881760,228.649796 174.646606,228.058777 169.430084,228.192825 
	C167.452072,228.243652 165.516998,229.964920 163.228668,230.934631 
	C163.907486,229.629395 164.854202,227.244431 165.943466,227.177444 
	C171.834457,226.815170 177.761047,227.003616 183.674149,227.087357 
	C184.118423,227.093628 184.553268,227.764450 185.050995,228.539215 
z"/>
<path fill="#7EBAEC" opacity="1.000000" stroke="none" 
	d="
M167.333466,258.982361 
	C165.443634,253.377411 170.497101,250.197388 172.377426,245.777512 
	C172.435379,245.641281 174.022690,246.155670 174.941742,246.713516 
	C173.726624,248.490662 172.225021,249.776688 171.264130,251.385620 
	C169.858368,253.739365 168.840347,256.324677 167.333466,258.982361 
z"/>
<path fill="#7EBAEC" opacity="1.000000" stroke="none" 
	d="
M157.958588,265.402649 
	C159.181793,265.828064 160.456818,266.619293 161.726913,267.407471 
	C163.233002,264.922516 164.697845,262.505615 166.496277,260.004333 
	C165.177948,263.922424 163.526062,267.924927 161.530945,272.759094 
	C160.123795,269.964935 159.067093,267.866669 157.958588,265.402649 
z"/>
<path fill="#7EBAEC" opacity="1.000000" stroke="none" 
	d="
M159.405548,304.895782 
	C159.044937,304.065613 158.595947,302.806091 159.038116,302.125519 
	C161.778290,297.907806 162.521439,293.490631 160.991440,288.272644 
	C166.943314,293.957336 161.939850,299.240204 159.405548,304.895782 
z"/>
<path fill="#7EBAEC" opacity="1.000000" stroke="none" 
	d="
M193.087463,246.583527 
	C190.431229,241.210800 187.716415,235.456650 185.028381,229.301788 
	C187.713074,234.668076 190.370972,240.435089 193.087463,246.583527 
z"/>
<path fill="#7EBAEC" opacity="1.000000" stroke="none" 
	d="
M161.661057,233.000885 
	C160.277069,237.160645 158.566711,241.497787 156.518661,245.897186 
	C157.898880,241.699051 159.616791,237.438660 161.661057,233.000885 
z"/>
<path fill="#7EBAEC" opacity="1.000000" stroke="none" 
	d="
M106.651093,240.020142 
	C105.615822,243.509445 104.241890,247.156662 102.528381,250.872131 
	C103.563354,247.352936 104.937889,243.765503 106.651093,240.020142 
z"/>
<path fill="#7EBAEC" opacity="1.000000" stroke="none" 
	d="
M158.896729,282.689301 
	C157.344696,280.138275 155.848938,277.210480 154.583557,273.911743 
	C156.193649,276.464722 157.573334,279.388611 158.896729,282.689301 
z"/>
<path fill="#7EBAEC" opacity="1.000000" stroke="none" 
	d="
M110.635880,230.084610 
	C109.948021,232.924652 108.917603,235.913452 107.531387,238.978455 
	C108.214828,236.114227 109.254074,233.173798 110.635880,230.084610 
z"/>
<path fill="#7EBAEC" opacity="1.000000" stroke="none" 
	d="
M142.051956,247.587097 
	C140.409119,244.860596 138.714005,241.766251 137.041687,238.278473 
	C138.709564,240.996445 140.354614,244.107834 142.051956,247.587097 
z"/>
<path fill="#7EBAEC" opacity="1.000000" stroke="none" 
	d="
M100.623856,254.070480 
	C99.928665,256.582306 98.904213,259.242981 97.529373,261.969238 
	C98.217514,259.429688 99.256050,256.824493 100.623856,254.070480 
z"/>
<path fill="#7EBAEC" opacity="1.000000" stroke="none" 
	d="
M199.069946,259.569641 
	C197.737030,257.181976 196.363113,254.413055 195.004105,251.234375 
	C196.355637,253.612549 197.692291,256.400482 199.069946,259.569641 
z"/>
<path fill="#7EBAEC" opacity="1.000000" stroke="none" 
	d="
M134.972412,269.399658 
	C136.276443,271.483795 137.637848,273.930359 138.994476,276.773773 
	C137.669724,274.701080 136.349747,272.231598 134.972412,269.399658 
z"/>
<path fill="#7EBAEC" opacity="1.000000" stroke="none" 
	d="
M96.642227,263.007538 
	C96.272232,265.158844 95.570534,267.479034 94.521172,269.871704 
	C94.885849,267.688232 95.598190,265.432343 96.642227,263.007538 
z"/>
<path fill="#7EBAEC" opacity="1.000000" stroke="none" 
	d="
M189.642059,279.914978 
	C190.647293,281.513855 191.825638,283.399506 192.986893,285.678070 
	C191.918243,284.114594 190.866699,282.158173 189.642059,279.914978 
z"/>
<path fill="#7EBAEC" opacity="1.000000" stroke="none" 
	d="
M181.096024,260.293457 
	C182.105820,261.722717 183.051270,263.514465 183.979828,265.692444 
	C182.985855,264.271057 182.008759,262.463501 181.096024,260.293457 
z"/>
<path fill="#7EBAEC" opacity="1.000000" stroke="none" 
	d="
M141.939911,283.394287 
	C142.935135,284.794739 143.964844,286.554321 144.982483,288.709076 
	C143.971756,287.320648 142.973083,285.537048 141.939911,283.394287 
z"/>
<path fill="#7EBAEC" opacity="1.000000" stroke="none" 
	d="
M177.953979,253.394043 
	C178.939362,254.814789 179.974487,256.592041 180.998077,258.770935 
	C179.992279,257.365234 178.997986,255.557907 177.953979,253.394043 
z"/>
<path fill="#7EBAEC" opacity="1.000000" stroke="none" 
	d="
M174.986267,247.369659 
	C175.956146,248.780716 176.971909,250.547653 177.971588,252.701294 
	C176.981018,251.300507 176.006577,249.513031 174.986267,247.369659 
z"/>
<path fill="#7EBAEC" opacity="1.000000" stroke="none" 
	d="
M137.082733,237.613312 
	C136.425674,236.837296 135.720871,235.701508 135.024506,234.198029 
	C135.700272,234.971405 136.367630,236.112473 137.082733,237.613312 
z"/>
<path fill="#7EBAEC" opacity="1.000000" stroke="none" 
	d="
M132.962784,264.403809 
	C133.618164,265.475861 134.308960,266.912292 134.979446,268.712860 
	C134.305481,267.640717 133.651840,266.204468 132.962784,264.403809 
z"/>
<path fill="#7EBAEC" opacity="1.000000" stroke="none" 
	d="
M194.917725,249.732315 
	C194.242126,249.238327 193.631882,248.410995 193.046005,247.228897 
	C193.707932,247.715744 194.345505,248.557358 194.917725,249.732315 
z"/>
<path fill="#7EBAEC" opacity="1.000000" stroke="none" 
	d="
M160.881073,286.710632 
	C160.205902,286.204895 159.600128,285.364319 159.007355,284.165100 
	C159.663712,284.662903 160.307098,285.519379 160.881073,286.710632 
z"/>
<path fill="#7EBAEC" opacity="1.000000" stroke="none" 
	d="
M201.029633,266.570129 
	C200.709595,265.537476 200.353622,264.113708 200.029556,262.294189 
	C200.372208,263.325348 200.682953,264.752167 201.029633,266.570129 
z"/>
<path fill="#7EBAEC" opacity="1.000000" stroke="none" 
	d="
M144.846802,252.743591 
	C144.219452,252.232468 143.597839,251.385895 142.991043,250.175568 
	C143.621429,250.677246 144.236984,251.542709 144.846802,252.743591 
z"/>
<path fill="#7EBAEC" opacity="1.000000" stroke="none" 
	d="
M126.985321,252.354340 
	C127.582954,252.476730 128.229843,252.937454 128.909424,253.724579 
	C128.306259,253.598221 127.670410,253.145447 126.985321,252.354340 
z"/>
<path fill="#7EBAEC" opacity="1.000000" stroke="none" 
	d="
M154.934753,258.382263 
	C155.256851,258.816376 155.631714,259.599152 155.975128,260.734009 
	C155.624969,260.300995 155.306244,259.515991 154.934753,258.382263 
z"/>
<path fill="#7EBAEC" opacity="1.000000" stroke="none" 
	d="
M186.957581,272.386871 
	C187.282547,272.840271 187.644928,273.648560 187.997986,274.817108 
	C187.657440,274.365479 187.326233,273.553650 186.957581,272.386871 
z"/>
<path fill="#7EBAEC" opacity="1.000000" stroke="none" 
	d="
M183.953018,266.323669 
	C184.259415,266.486816 184.606308,266.968109 184.958984,267.765869 
	C184.640991,267.602173 184.317245,267.121979 183.953018,266.323669 
z"/>
<path fill="#7EBAEC" opacity="1.000000" stroke="none" 
	d="
M200.076965,261.662750 
	C199.758194,261.503204 199.393677,261.024597 199.043335,260.223022 
	C199.382065,260.381256 199.706650,260.862457 200.076965,261.662750 
z"/>
<path fill="#7EBAEC" opacity="1.000000" stroke="none" 
	d="
M157.101471,263.282166 
	C157.437637,263.471161 157.710312,263.979248 157.970032,264.787292 
	C157.650711,264.591888 157.344360,264.096588 157.101471,263.282166 
z"/>
<path fill="#7EBAEC" opacity="1.000000" stroke="none" 
	d="
M153.106354,255.284912 
	C153.503098,255.305481 153.854660,255.566757 154.024170,255.941437 
	C153.481842,256.025879 153.221542,255.849472 153.106354,255.284912 
z"/>
<path fill="#7EBAEC" opacity="1.000000" stroke="none" 
	d="
M139.933044,279.329468 
	C140.246277,279.489807 140.602097,279.968109 140.960876,280.764893 
	C140.634430,280.604736 140.305023,280.126068 139.933044,279.329468 
z"/>
<path fill="#7EBAEC" opacity="1.000000" stroke="none" 
	d="
M140.954224,281.319946 
	C141.254272,281.489624 141.601425,281.973755 141.952209,282.775269 
	C141.637650,282.606537 141.319489,282.120453 140.954224,281.319946 
z"/>
<path fill="#7EBAEC" opacity="1.000000" stroke="none" 
	d="
M189.124695,278.210693 
	C189.335876,278.274902 189.490128,278.562622 189.498260,279.063904 
	C189.112793,279.045166 189.018005,278.764099 189.124695,278.210693 
z"/>
<path fill="#7EBAEC" opacity="1.000000" stroke="none" 
	d="
M155.988251,261.291351 
	C156.204849,261.229309 156.502075,261.436554 156.893845,261.907043 
	C156.681885,261.967072 156.375381,261.763855 155.988251,261.291351 
z"/>
<path fill="#7EBAEC" opacity="1.000000" stroke="none" 
	d="
M162.680908,230.991165 
	C162.827728,231.212784 162.693069,231.518387 162.348053,231.971176 
	C162.224930,231.770615 162.312164,231.422882 162.680908,230.991165 
z"/>
<path fill="#7EBAEC" opacity="1.000000" stroke="none" 
	d="
M132.175140,263.318176 
	C132.468689,263.198608 132.673889,263.395111 132.882996,263.868774 
	C132.610977,264.026245 132.344269,263.855682 132.175140,263.318176 
z"/>
<path fill="#7EBAEC" opacity="1.000000" stroke="none" 
	d="
M139.124695,278.205963 
	C139.467422,278.086304 139.692230,278.320160 139.902802,278.868683 
	C139.674591,278.898529 139.380661,278.690552 139.124695,278.205963 
z"/>
<path fill="#7EBAEC" opacity="1.000000" stroke="none" 
	d="
M188.128479,276.208618 
	C188.391785,276.172455 188.620102,276.419189 188.916138,276.912781 
	C188.687057,276.936951 188.390274,276.714264 188.128479,276.208618 
z"/>
<path fill="#7EBAEC" opacity="1.000000" stroke="none" 
	d="
M142.877869,248.802979 
	C142.527359,248.925232 142.300095,248.690704 142.093582,248.137009 
	C142.329178,248.105530 142.624786,248.314987 142.877869,248.802979 
z"/>
<path fill="#000000" opacity="1.000000" stroke="none" 
	d="
M355.159973,235.001556 
	C364.587219,236.344009 363.992828,236.399170 363.996613,243.433395 
	C364.003418,256.084625 364.000000,256.084198 351.445709,255.998535 
	C350.470612,255.991882 349.495422,255.997650 348.001251,255.997650 
	C348.001251,249.825821 347.740082,243.884262 348.085815,237.978210 
	C348.351349,233.442017 352.363831,235.706985 355.159973,235.001556 
z"/>
<path fill="#000000" opacity="1.000000" stroke="none" 
	d="
M289.998413,246.005890 
	C289.998444,246.982971 289.998474,247.480087 289.998535,247.977219 
	C289.999725,256.437866 289.889862,256.552307 281.341766,256.999512 
	C274.522766,257.356262 272.999908,255.928360 273.001892,249.180817 
	C273.002655,246.529480 273.338135,243.824158 272.923065,241.239471 
	C272.303955,237.384293 274.325195,235.758850 277.494812,235.279892 
	C280.247223,234.863998 283.160431,234.685745 285.880920,235.136566 
	C288.222290,235.524536 290.553162,236.706406 290.052643,240.064514 
	C289.786804,241.848053 290.000916,243.703140 289.998413,246.005890 
z"/>
</svg>